<svg width="23" height="26" viewBox="0 0 23 26" fill="none" xmlns="http://www.w3.org/2000/svg">
    <path d="M20.3922 23.868C20.3922 23.9241 20.3687 23.9567 20.3891 23.9598L2.07898 23.973C2.07082 23.9669 2.03922 23.9302 2.03922 23.868V8.66565H20.3922V23.868ZM2.03922 3.66039C2.03922 3.60533 2.05961 3.57271 2.04227 3.56761H6.11765V4.07843C6.11765 4.34885 6.22507 4.60819 6.41628 4.7994C6.6075 4.99062 6.86684 5.09804 7.13726 5.09804C7.40767 5.09804 7.66701 4.99062 7.85823 4.7994C8.04944 4.60819 8.15686 4.34885 8.15686 4.07843V3.56863H14.2745V4.07843C14.2745 4.34885 14.3819 4.60819 14.5731 4.7994C14.7644 4.99062 15.0237 5.09804 15.2941 5.09804C15.5645 5.09804 15.8239 4.99062 16.0151 4.7994C16.2063 4.60819 16.3137 4.34885 16.3137 4.07843V3.56863H20.3605C20.3809 3.5949 20.392 3.62716 20.3922 3.66039V6.62745H2.03922V3.66039ZM20.3871 1.52941H16.3137V1.01961C16.3137 0.749191 16.2063 0.48985 16.0151 0.298636C15.8239 0.107423 15.5645 0 15.2941 0C15.0237 0 14.7644 0.107423 14.5731 0.298636C14.3819 0.48985 14.2745 0.749191 14.2745 1.01961V1.52941H8.15686V1.01961C8.15686 0.749191 8.04944 0.48985 7.85823 0.298636C7.66701 0.107423 7.40767 0 7.13726 0C6.86684 0 6.6075 0.107423 6.41628 0.298636C6.22507 0.48985 6.11765 0.749191 6.11765 1.01961V1.52941H2.03004C0.91051 1.52941 0 2.4858 0 3.66039V23.869C0 25.0446 0.91153 26 2.03106 26H20.4003C21.5198 26 22.4314 25.0446 22.4314 23.869V3.66039C22.4314 2.48478 21.5147 1.52839 20.3871 1.52839V1.52941Z" fill="#E2E3E3"/>
    <path d="M7.54043 14.9825H15.3404C15.599 14.9825 15.847 14.8797 16.0299 14.6969C16.2127 14.5141 16.3154 14.2661 16.3154 14.0075C16.3154 13.7489 16.2127 13.5009 16.0299 13.318C15.847 13.1352 15.599 13.0325 15.3404 13.0325H7.54043C7.28184 13.0325 7.03385 13.1352 6.851 13.318C6.66815 13.5009 6.56543 13.7489 6.56543 14.0075C6.56543 14.2661 6.66815 14.5141 6.851 14.6969C7.03385 14.8797 7.28184 14.9825 7.54043 14.9825ZM7.54043 19.8575H15.3404C15.599 19.8575 15.847 19.7547 16.0299 19.5719C16.2127 19.3891 16.3154 19.1411 16.3154 18.8825C16.3154 18.6239 16.2127 18.3759 16.0299 18.193C15.847 18.0102 15.599 17.9075 15.3404 17.9075H7.54043C7.28184 17.9075 7.03385 18.0102 6.851 18.193C6.66815 18.3759 6.56543 18.6239 6.56543 18.8825C6.56543 19.1411 6.66815 19.3891 6.851 19.5719C7.03385 19.7547 7.28184 19.8575 7.54043 19.8575Z" fill="#E2E3E3"/>
</svg>
