<svg width="126" height="125" viewBox="0 0 126 125" fill="none" xmlns="http://www.w3.org/2000/svg">
<path d="M3.35358 76.198C2.58759 76.198 1.90223 75.6591 1.745 74.8789C0.324558 67.829 0.118376 60.678 1.13259 53.6243C2.11264 46.8067 4.20769 40.228 7.359 34.0709C7.77252 33.263 8.76235 32.9434 9.56981 33.3571C10.3773 33.7708 10.6967 34.7612 10.2832 35.569C7.29756 41.4025 5.31271 47.6347 4.3843 54.0924C3.42384 60.7734 3.61947 67.5484 4.96561 74.2295C5.14473 75.1192 4.56918 75.986 3.67994 76.1652C3.57032 76.1872 3.46109 76.198 3.35358 76.198Z" fill="#ED8B00"/>
<path d="M3.35358 76.198C2.58759 76.198 1.90223 75.6591 1.745 74.8789C0.324558 67.829 0.118376 60.678 1.13259 53.6243C2.11264 46.8067 4.20769 40.228 7.359 34.0709C7.77252 33.263 8.76235 32.9434 9.56981 33.3571C10.3773 33.7708 10.6967 34.7612 10.2832 35.569C7.29756 41.4025 5.31271 47.6347 4.3843 54.0924C3.42384 60.7734 3.61947 67.5484 4.96561 74.2295C5.14473 75.1192 4.56918 75.986 3.67994 76.1652C3.57032 76.1872 3.46109 76.198 3.35358 76.198Z" fill="#ED8B00"/>
<path d="M13.8567 28.2793C13.5207 28.2793 13.1819 28.1765 12.8899 27.9633C12.1569 27.4284 11.9964 26.4003 12.5311 25.6672C21.7537 13.0222 35.2866 4.35304 50.6371 1.25634C64.2571 -1.49023 78.0321 0.286394 90.4735 6.39587C91.2877 6.79576 91.6239 7.78049 91.2242 8.59524C90.8245 9.41018 89.8406 9.7463 89.0258 9.34661C77.2409 3.55923 64.1907 1.87614 51.2863 4.47904C36.7431 7.4123 23.9221 15.6251 15.185 27.6044C14.8634 28.0453 14.3635 28.2793 13.8567 28.2793Z" fill="#ED8B00"/>
<path d="M13.8567 28.2793C13.5207 28.2793 13.1819 28.1765 12.8899 27.9633C12.1569 27.4284 11.9964 26.4003 12.5311 25.6672C21.7537 13.0222 35.2866 4.35304 50.6371 1.25634C64.2571 -1.49023 78.0321 0.286394 90.4735 6.39587C91.2877 6.79576 91.6239 7.78049 91.2242 8.59524C90.8245 9.41018 89.8406 9.7463 89.0258 9.34661C77.2409 3.55923 64.1907 1.87614 51.2863 4.47904C36.7431 7.4123 23.9221 15.6251 15.185 27.6044C14.8634 28.0453 14.3635 28.2793 13.8567 28.2793Z" fill="#ED8B00"/>
<path d="M122.611 52.1406C121.845 52.1406 121.16 51.6019 121.003 50.8217C117.991 35.8723 109.463 22.8167 96.9905 14.0596C96.2481 13.5381 96.0688 12.5132 96.5894 11.7705C97.111 11.0272 98.1354 10.8478 98.8778 11.3691C112.043 20.6125 121.044 34.393 124.224 50.1723C124.403 51.062 123.827 51.9286 122.938 52.108C122.828 52.1301 122.719 52.1406 122.611 52.1406Z" fill="#ED8B00"/>
<path d="M122.611 52.1406C121.845 52.1406 121.16 51.6019 121.003 50.8217C117.991 35.8723 109.463 22.8167 96.9905 14.0596C96.2481 13.5381 96.0688 12.5132 96.5894 11.7705C97.111 11.0272 98.1354 10.8478 98.8778 11.3691C112.043 20.6125 121.044 34.393 124.224 50.1723C124.403 51.062 123.827 51.9286 122.938 52.108C122.828 52.1301 122.719 52.1406 122.611 52.1406Z" fill="#ED8B00"/>
<path d="M123.847 65.3931C123.837 65.3931 123.826 65.3929 123.815 65.3927C122.908 65.3754 122.187 64.6258 122.204 63.7182C122.286 59.4065 121.893 55.065 121.036 50.8146C120.857 49.9249 121.432 49.0581 122.322 48.8787C123.212 48.6989 124.077 49.2749 124.257 50.1646C125.161 54.649 125.575 59.2302 125.489 63.7809C125.472 64.6776 124.74 65.3931 123.847 65.3931Z" fill="#ED8B00"/>
<path d="M123.847 65.3931C123.837 65.3931 123.826 65.3929 123.815 65.3927C122.908 65.3754 122.187 64.6258 122.204 63.7182C122.286 59.4065 121.893 55.065 121.036 50.8146C120.857 49.9249 121.432 49.0581 122.322 48.8787C123.212 48.6989 124.077 49.2749 124.257 50.1646C125.161 54.649 125.575 59.2302 125.489 63.7809C125.472 64.6776 124.74 65.3931 123.847 65.3931Z" fill="#ED8B00"/>
<path d="M3.96812 78.7886C3.22978 78.7886 2.55882 78.2871 2.37433 77.5378C2.15278 76.637 1.95159 75.741 1.77651 74.8744C1.59682 73.9848 2.17217 73.118 3.06141 72.9382C3.95181 72.758 4.81724 73.3339 4.99693 74.2235C5.1628 75.0452 5.35363 75.8956 5.56442 76.7517C5.78135 77.6331 5.24324 78.5235 4.36225 78.7406C4.23037 78.773 4.09809 78.7886 3.96812 78.7886Z" fill="#ED8B00"/>
<path d="M3.96812 78.7886C3.22978 78.7886 2.55882 78.2871 2.37433 77.5378C2.15278 76.637 1.95159 75.741 1.77651 74.8744C1.59682 73.9848 2.17217 73.118 3.06141 72.9382C3.95181 72.758 4.81724 73.3339 4.99693 74.2235C5.1628 75.0452 5.35363 75.8956 5.56442 76.7517C5.78135 77.6331 5.24324 78.5235 4.36225 78.7406C4.23037 78.773 4.09809 78.7886 3.96812 78.7886Z" fill="#ED8B00"/>
<path d="M47.2797 122.971C46.8948 122.971 46.5082 122.836 46.1962 122.562C45.5147 121.963 45.4475 120.925 46.0465 120.243C52.7012 112.665 57.6355 103.537 60.3165 93.8461C63.1271 83.6858 63.488 73.2563 61.3891 62.8476C61.2096 61.9579 61.7851 61.0911 62.6744 60.9117C63.564 60.7316 64.4302 61.308 64.6093 62.1976C66.8115 73.1171 66.4325 84.0601 63.4826 94.7229C60.6703 104.889 55.4944 114.464 48.5145 122.412C48.1897 122.782 47.7358 122.971 47.2797 122.971Z" fill="#ED8B00"/>
<path d="M47.2797 122.971C46.8948 122.971 46.5082 122.836 46.1962 122.562C45.5147 121.963 45.4475 120.925 46.0465 120.243C52.7012 112.665 57.6355 103.537 60.3165 93.8461C63.1271 83.6858 63.488 73.2563 61.3891 62.8476C61.2096 61.9579 61.7851 61.0911 62.6744 60.9117C63.564 60.7316 64.4302 61.308 64.6093 62.1976C66.8115 73.1171 66.4325 84.0601 63.4826 94.7229C60.6703 104.889 55.4944 114.464 48.5145 122.412C48.1897 122.782 47.7358 122.971 47.2797 122.971Z" fill="#ED8B00"/>
<path d="M39.4155 120.276C39.0018 120.276 38.5881 120.121 38.2687 119.809C37.6192 119.175 37.6062 118.135 38.2399 117.485C43.8435 111.738 48.1634 105.033 51.0795 97.5567C51.4095 96.7112 52.3625 96.2937 53.207 96.6229C54.0521 96.953 54.47 97.9059 54.14 98.7513C51.063 106.641 46.5045 113.716 40.5914 119.78C40.2697 120.111 39.8427 120.276 39.4155 120.276Z" fill="#ED8B00"/>
<path d="M39.4155 120.276C39.0018 120.276 38.5881 120.121 38.2687 119.809C37.6192 119.175 37.6062 118.135 38.2399 117.485C43.8435 111.738 48.1634 105.033 51.0795 97.5567C51.4095 96.7112 52.3625 96.2937 53.207 96.6229C54.0521 96.953 54.47 97.9059 54.14 98.7513C51.063 106.641 46.5045 113.716 40.5914 119.78C40.2697 120.111 39.8427 120.276 39.4155 120.276Z" fill="#ED8B00"/>
<path d="M55.7951 124.611C55.4413 124.611 55.085 124.498 54.7847 124.263C54.07 123.704 53.9433 122.671 54.5019 121.956C67.9196 104.777 73.1472 82.6857 68.8444 61.345L68.7338 60.7965C68.3335 59.4553 67.4856 58.3065 66.3057 57.5223C64.9705 56.6348 63.37 56.3209 61.7998 56.638C58.8272 57.2373 56.8095 59.9512 56.9951 62.8985L57.1568 63.7007C58.8658 72.1855 58.821 80.745 57.0234 89.1414C56.8333 90.0288 55.9598 90.5938 55.0731 90.4041C54.1859 90.2141 53.621 89.3404 53.8108 88.4531C55.4019 81.0224 55.543 73.4547 54.2339 65.9349L54.2001 65.941L53.8819 64.3599C52.8701 59.3375 56.1307 54.4279 61.1499 53.4161C63.5804 52.9248 66.0572 53.4109 68.1237 54.7846C70.1899 56.1581 71.5983 58.2541 72.089 60.6868L72.3783 62.1204L72.3407 62.1327C76.3192 83.9671 70.7987 106.43 57.0904 123.98C56.7665 124.394 56.2831 124.611 55.7951 124.611Z" fill="#ED8B00"/>
<path d="M55.7951 124.611C55.4413 124.611 55.085 124.498 54.7847 124.263C54.07 123.704 53.9433 122.671 54.5019 121.956C67.9196 104.777 73.1472 82.6857 68.8444 61.345L68.7338 60.7965C68.3335 59.4553 67.4856 58.3065 66.3057 57.5223C64.9705 56.6348 63.37 56.3209 61.7998 56.638C58.8272 57.2373 56.8095 59.9512 56.9951 62.8985L57.1568 63.7007C58.8658 72.1855 58.821 80.745 57.0234 89.1414C56.8333 90.0288 55.9598 90.5938 55.0731 90.4041C54.1859 90.2141 53.621 89.3404 53.8108 88.4531C55.4019 81.0224 55.543 73.4547 54.2339 65.9349L54.2001 65.941L53.8819 64.3599C52.8701 59.3375 56.1307 54.4279 61.1499 53.4161C63.5804 52.9248 66.0572 53.4109 68.1237 54.7846C70.1899 56.1581 71.5983 58.2541 72.089 60.6868L72.3783 62.1204L72.3407 62.1327C76.3192 83.9671 70.7987 106.43 57.0904 123.98C56.7665 124.394 56.2831 124.611 55.7951 124.611Z" fill="#ED8B00"/>
<path d="M32.2303 116.671C31.7917 116.671 31.3539 116.496 31.0305 116.15C30.4108 115.488 30.4453 114.448 31.1078 113.828C43.323 102.395 49.2802 85.7031 47.0433 69.1774C46.9218 68.278 47.5519 67.45 48.4509 67.3282C49.3505 67.2062 50.1771 67.8368 50.299 68.7363C52.6784 86.3151 46.3432 104.069 33.3522 116.228C33.0355 116.524 32.6325 116.671 32.2303 116.671Z" fill="#ED8B00"/>
<path d="M32.2303 116.671C31.7917 116.671 31.3539 116.496 31.0305 116.15C30.4108 115.488 30.4453 114.448 31.1078 113.828C43.323 102.395 49.2802 85.7031 47.0433 69.1774C46.9218 68.278 47.5519 67.45 48.4509 67.3282C49.3505 67.2062 50.1771 67.8368 50.299 68.7363C52.6784 86.3151 46.3432 104.069 33.3522 116.228C33.0355 116.524 32.6325 116.671 32.2303 116.671Z" fill="#ED8B00"/>
<path d="M79.5751 77.5552C78.6701 77.5552 77.9352 76.8222 77.9327 75.9161C77.9187 70.5595 77.369 65.1507 76.3001 59.84L76.1721 59.2043C75.3485 55.9105 73.356 53.0821 70.5105 51.1903C67.4853 49.1791 63.8583 48.4675 60.298 49.1858C54.954 50.2641 50.7813 54.4103 49.6675 59.7486C49.482 60.6371 48.6118 61.2075 47.7237 61.0212C46.8356 60.8359 46.2662 59.9653 46.4515 59.0767C47.8345 52.4495 53.0146 47.3024 59.6484 45.9639C64.0688 45.0716 68.5724 45.9553 72.3287 48.4529C76.0851 50.9502 78.6444 54.7617 79.5349 59.1851L79.7999 60.5021L79.7759 60.5123C80.7196 65.6078 81.2046 70.7802 81.2178 75.9074C81.2203 76.815 80.4869 77.5527 79.5797 77.5552C79.5781 77.5552 79.5766 77.5552 79.5751 77.5552Z" fill="#ED8B00"/>
<path d="M79.5751 77.5552C78.6701 77.5552 77.9352 76.8222 77.9327 75.9161C77.9187 70.5595 77.369 65.1507 76.3001 59.84L76.1721 59.2043C75.3485 55.9105 73.356 53.0821 70.5105 51.1903C67.4853 49.1791 63.8583 48.4675 60.298 49.1858C54.954 50.2641 50.7813 54.4103 49.6675 59.7486C49.482 60.6371 48.6118 61.2075 47.7237 61.0212C46.8356 60.8359 46.2662 59.9653 46.4515 59.0767C47.8345 52.4495 53.0146 47.3024 59.6484 45.9639C64.0688 45.0716 68.5724 45.9553 72.3287 48.4529C76.0851 50.9502 78.6444 54.7617 79.5349 59.1851L79.7999 60.5021L79.7759 60.5123C80.7196 65.6078 81.2046 70.7802 81.2178 75.9074C81.2203 76.815 80.4869 77.5527 79.5797 77.5552C79.5781 77.5552 79.5766 77.5552 79.5751 77.5552Z" fill="#ED8B00"/>
<path d="M64.9271 125C64.6076 125 64.2847 124.907 64.001 124.713C63.2521 124.2 63.0605 123.178 63.5729 122.429C71.1201 111.392 75.9043 98.5784 77.409 85.3747C77.5118 84.4732 78.3273 83.8251 79.2273 83.9283C80.1284 84.0308 80.7759 84.8454 80.673 85.7469C79.1082 99.4809 74.1328 112.807 66.2842 124.284C65.966 124.75 65.451 125 64.9271 125Z" fill="#ED8B00"/>
<path d="M64.9271 125C64.6076 125 64.2847 124.907 64.001 124.713C63.2521 124.2 63.0605 123.178 63.5729 122.429C71.1201 111.392 75.9043 98.5784 77.409 85.3747C77.5118 84.4732 78.3273 83.8251 79.2273 83.9283C80.1284 84.0308 80.7759 84.8454 80.673 85.7469C79.1082 99.4809 74.1328 112.807 66.2842 124.284C65.966 124.75 65.451 125 64.9271 125Z" fill="#ED8B00"/>
<path d="M25.7381 112.284C25.278 112.284 24.8205 112.091 24.4957 111.716C23.9017 111.03 23.9764 109.992 24.6619 109.398C30.4594 104.375 34.8707 97.8928 37.4186 90.6538C39.8658 83.7012 40.5143 76.2228 39.3154 68.9271L39.3021 68.9294L38.9867 67.3654C37.6934 60.9513 38.9742 54.4178 42.5936 48.9684C46.2123 43.5193 51.7361 39.8062 58.1472 38.513C60.3768 38.063 62.6485 37.9236 64.8992 38.0984C65.8038 38.1688 66.48 38.9594 66.4095 39.8644C66.3391 40.7692 65.5508 41.4453 64.6447 41.3754C62.6965 41.2235 60.7293 41.3449 58.7967 41.735C53.2456 42.8547 48.4631 46.0695 45.3298 50.7875C42.4475 55.1273 41.2781 60.2618 41.9808 65.3791L42.2488 66.7084C43.9357 75.0771 43.3369 83.7348 40.5173 91.7455C37.7801 99.5223 33.0412 106.486 26.8128 111.883C26.502 112.152 26.1192 112.284 25.7381 112.284Z" fill="#ED8B00"/>
<path d="M25.7381 112.284C25.278 112.284 24.8205 112.091 24.4957 111.716C23.9017 111.03 23.9764 109.992 24.6619 109.398C30.4594 104.375 34.8707 97.8928 37.4186 90.6538C39.8658 83.7012 40.5143 76.2228 39.3154 68.9271L39.3021 68.9294L38.9867 67.3654C37.6934 60.9513 38.9742 54.4178 42.5936 48.9684C46.2123 43.5193 51.7361 39.8062 58.1472 38.513C60.3768 38.063 62.6485 37.9236 64.8992 38.0984C65.8038 38.1688 66.48 38.9594 66.4095 39.8644C66.3391 40.7692 65.5508 41.4453 64.6447 41.3754C62.6965 41.2235 60.7293 41.3449 58.7967 41.735C53.2456 42.8547 48.4631 46.0695 45.3298 50.7875C42.4475 55.1273 41.2781 60.2618 41.9808 65.3791L42.2488 66.7084C43.9357 75.0771 43.3369 83.7348 40.5173 91.7455C37.7801 99.5223 33.0412 106.486 26.8128 111.883C26.502 112.152 26.1192 112.284 25.7381 112.284Z" fill="#ED8B00"/>
<path d="M74.6246 123.897C74.3424 123.897 74.0561 123.824 73.7952 123.671C73.0125 123.212 72.7505 122.205 73.2093 121.422C84.3718 102.386 88.1162 79.9815 83.7527 58.336L83.6091 57.624C82.2367 51.842 78.5102 46.9019 73.2978 43.9934C72.5053 43.5512 72.2216 42.5504 72.6635 41.7575C73.1051 40.9651 74.1055 40.6806 74.8979 41.1227C81.1612 44.6178 85.5667 50.6533 86.9848 57.6818L87.2665 59.0778L87.2442 59.0857C91.3326 81.0889 87.3747 103.76 76.0431 123.085C75.7373 123.607 75.1884 123.897 74.6246 123.897Z" fill="#ED8B00"/>
<path d="M74.6246 123.897C74.3424 123.897 74.0561 123.824 73.7952 123.671C73.0125 123.212 72.7505 122.205 73.2093 121.422C84.3718 102.386 88.1162 79.9815 83.7527 58.336L83.6091 57.624C82.2367 51.842 78.5102 46.9019 73.2978 43.9934C72.5053 43.5512 72.2216 42.5504 72.6635 41.7575C73.1051 40.9651 74.1055 40.6806 74.8979 41.1227C81.1612 44.6178 85.5667 50.6533 86.9848 57.6818L87.2665 59.0778L87.2442 59.0857C91.3326 81.0889 87.3747 103.76 76.0431 123.085C75.7373 123.607 75.1884 123.897 74.6246 123.897Z" fill="#ED8B00"/>
<path d="M19.9624 107.195C19.487 107.195 19.0155 106.989 18.6907 106.593C18.1159 105.89 18.2188 104.855 18.9207 104.28C23.7852 100.294 27.5612 95.0843 29.8404 89.2151C30.1688 88.3691 31.1207 87.9496 31.9663 88.2784C32.812 88.6072 33.2313 89.5595 32.9026 90.4054C30.419 96.801 26.304 102.478 21.0023 106.823C20.6973 107.073 20.3287 107.195 19.9624 107.195Z" fill="#ED8B00"/>
<path d="M19.9624 107.195C19.487 107.195 19.0155 106.989 18.6907 106.593C18.1159 105.89 18.2188 104.855 18.9207 104.28C23.7852 100.294 27.5612 95.0843 29.8404 89.2151C30.1688 88.3691 31.1207 87.9496 31.9663 88.2784C32.812 88.6072 33.2313 89.5595 32.9026 90.4054C30.419 96.801 26.304 102.478 21.0023 106.823C20.6973 107.073 20.3287 107.195 19.9624 107.195Z" fill="#ED8B00"/>
<path d="M93.485 93.7588C93.3965 93.7588 93.3065 93.7517 93.2163 93.7367C92.3211 93.5894 91.7148 92.7439 91.8621 91.8485C93.7711 80.2459 93.5509 68.4648 91.2082 56.8326L91.1191 56.3901C89.5207 49.0339 85.2016 42.7038 78.9201 38.5284C72.5142 34.2705 64.834 32.7631 57.2956 34.2847C49.7543 35.8055 43.2572 40.1727 39.0007 46.5822C35.0195 52.5774 33.4441 59.6881 34.5019 66.7556L34.7949 68.2117C35.6008 72.2176 35.7912 76.2833 35.3602 80.296C35.2635 81.1983 34.4531 81.851 33.5516 81.7542C32.6495 81.6574 31.997 80.8472 32.0937 79.9447C32.431 76.804 32.3529 73.6261 31.8622 70.4756L31.5385 68.8697C29.844 60.4652 31.5222 51.904 36.2645 44.7633C41.0065 37.6226 48.2448 32.757 56.6461 31.0627C65.0449 29.3677 73.6012 31.0468 80.7383 35.7909C87.8757 40.5349 92.7384 47.7761 94.4317 56.18L94.5859 56.9462L94.5807 56.9525C96.8591 68.726 97.0355 80.6412 95.1038 92.3821C94.9715 93.1874 94.2748 93.7588 93.485 93.7588Z" fill="#ED8B00"/>
<path d="M93.485 93.7588C93.3965 93.7588 93.3065 93.7517 93.2163 93.7367C92.3211 93.5894 91.7148 92.7439 91.8621 91.8485C93.7711 80.2459 93.5509 68.4648 91.2082 56.8326L91.1191 56.3901C89.5207 49.0339 85.2016 42.7038 78.9201 38.5284C72.5142 34.2705 64.834 32.7631 57.2956 34.2847C49.7543 35.8055 43.2572 40.1727 39.0007 46.5822C35.0195 52.5774 33.4441 59.6881 34.5019 66.7556L34.7949 68.2117C35.6008 72.2176 35.7912 76.2833 35.3602 80.296C35.2635 81.1983 34.4531 81.851 33.5516 81.7542C32.6495 81.6574 31.997 80.8472 32.0937 79.9447C32.431 76.804 32.3529 73.6261 31.8622 70.4756L31.5385 68.8697C29.844 60.4652 31.5222 51.904 36.2645 44.7633C41.0065 37.6226 48.2448 32.757 56.6461 31.0627C65.0449 29.3677 73.6012 31.0468 80.7383 35.7909C87.8757 40.5349 92.7384 47.7761 94.4317 56.18L94.5859 56.9462L94.5807 56.9525C96.8591 68.726 97.0355 80.6412 95.1038 92.3821C94.9715 93.1874 94.2748 93.7588 93.485 93.7588Z" fill="#ED8B00"/>
<path d="M84.8079 120.979C84.5665 120.979 84.3212 120.926 84.0895 120.813C83.2738 120.415 82.9349 119.431 83.3325 118.615C86.0565 113.022 88.2494 107.151 89.8509 101.163C90.0855 100.287 90.9855 99.7671 91.8624 100C92.7388 100.235 93.2591 101.136 93.0247 102.013C91.3689 108.203 89.1018 114.273 86.2857 120.055C86.0012 120.639 85.4164 120.979 84.8079 120.979Z" fill="#ED8B00"/>
<path d="M84.8079 120.979C84.5665 120.979 84.3212 120.926 84.0895 120.813C83.2738 120.415 82.9349 119.431 83.3325 118.615C86.0565 113.022 88.2494 107.151 89.8509 101.163C90.0855 100.287 90.9855 99.7671 91.8624 100C92.7388 100.235 93.2591 101.136 93.0247 102.013C91.3689 108.203 89.1018 114.273 86.2857 120.055C86.0012 120.639 85.4164 120.979 84.8079 120.979Z" fill="#ED8B00"/>
<path d="M95.3874 115.687C95.1923 115.687 94.994 115.652 94.8009 115.578C93.9535 115.253 93.5294 114.303 93.8537 113.455C100.883 95.0709 102.572 75.1245 98.7449 55.7438L98.6596 55.3279C97.6124 50.1339 95.5128 45.3454 92.4194 41.0957C91.8855 40.362 92.0466 39.3341 92.7802 38.7999C93.5137 38.2654 94.541 38.4271 95.0751 39.1608C98.3137 43.6101 100.553 48.5992 101.737 53.9994L101.744 54.0038L101.883 54.6799C105.939 74.8015 104.224 95.5319 96.9221 114.63C96.6717 115.284 96.0486 115.687 95.3874 115.687Z" fill="#ED8B00"/>
<path d="M95.3874 115.687C95.1923 115.687 94.994 115.652 94.8009 115.578C93.9535 115.253 93.5294 114.303 93.8537 113.455C100.883 95.0709 102.572 75.1245 98.7449 55.7438L98.6596 55.3279C97.6124 50.1339 95.5128 45.3454 92.4194 41.0957C91.8855 40.362 92.0466 39.3341 92.7802 38.7999C93.5137 38.2654 94.541 38.4271 95.0751 39.1608C98.3137 43.6101 100.553 48.5992 101.737 53.9994L101.744 54.0038L101.883 54.6799C105.939 74.8015 104.224 95.5319 96.9221 114.63C96.6717 115.284 96.0486 115.687 95.3874 115.687Z" fill="#ED8B00"/>
<path d="M87.1014 34.74C86.7351 34.7402 86.3671 34.6184 86.0618 34.3681C77.5715 27.4124 66.5383 24.6659 55.7907 26.833C53.0246 27.3903 50.3331 28.2642 47.7908 29.4301C46.966 29.8081 45.9912 29.446 45.6132 28.6209C45.2352 27.796 45.5972 26.8205 46.422 26.4421C49.1941 25.1708 52.1279 24.2181 55.1418 23.611C66.8582 21.2476 78.8871 24.2422 88.1431 31.8252C88.8451 32.4002 88.9482 33.4357 88.3733 34.1379C88.0486 34.5347 87.5767 34.74 87.1014 34.74Z" fill="#ED8B00"/>
<path d="M87.1014 34.74C86.7351 34.7402 86.3671 34.6184 86.0618 34.3681C77.5715 27.4124 66.5383 24.6659 55.7907 26.833C53.0246 27.3903 50.3331 28.2642 47.7908 29.4301C46.966 29.8081 45.9912 29.446 45.6132 28.6209C45.2352 27.796 45.5972 26.8205 46.422 26.4421C49.1941 25.1708 52.1279 24.2181 55.1418 23.611C66.8582 21.2476 78.8871 24.2422 88.1431 31.8252C88.8451 32.4002 88.9482 33.4357 88.3733 34.1379C88.0486 34.5347 87.5767 34.74 87.1014 34.74Z" fill="#ED8B00"/>
<path d="M14.9229 101.486C14.4424 101.486 13.9659 101.275 13.6415 100.871C13.0732 100.164 13.1859 99.1293 13.8932 98.561C21.9948 92.0491 25.9296 81.8398 24.3477 71.6575L24.0887 70.3726C21.1624 55.8534 26.4896 41.0287 37.9911 31.6838C38.6957 31.1114 39.7301 31.219 40.3018 31.9233C40.8739 32.628 40.7666 33.663 40.0624 34.2352C29.893 42.4976 24.9856 55.4287 27.0479 68.2779L27.3379 69.7165C29.7194 81.529 25.3562 93.5636 15.9508 101.123C15.6475 101.367 15.2841 101.486 14.9229 101.486Z" fill="#ED8B00"/>
<path d="M14.9229 101.486C14.4424 101.486 13.9659 101.275 13.6415 100.871C13.0732 100.164 13.1859 99.1293 13.8932 98.561C21.9948 92.0491 25.9296 81.8398 24.3477 71.6575L24.0887 70.3726C21.1624 55.8534 26.4896 41.0287 37.9911 31.6838C38.6957 31.1114 39.7301 31.219 40.3018 31.9233C40.8739 32.628 40.7666 33.663 40.0624 34.2352C29.893 42.4976 24.9856 55.4287 27.0479 68.2779L27.3379 69.7165C29.7194 81.529 25.3562 93.5636 15.9508 101.123C15.6475 101.367 15.2841 101.486 14.9229 101.486Z" fill="#ED8B00"/>
<path d="M10.6294 95.1738C10.1634 95.1738 9.70039 94.9764 9.37537 94.5928C8.78888 93.9006 8.87431 92.8636 9.56658 92.2765C15.2184 87.4846 17.9525 80.1173 16.8387 72.8489L16.6419 71.8745C16.1474 69.4251 15.8439 66.9109 15.7394 64.4017C15.7018 63.495 16.4062 62.7292 17.3125 62.6914C18.2186 62.6564 18.9842 63.3582 19.022 64.2652C19.0988 66.1155 19.2922 67.9688 19.598 69.7923L19.8854 71.2192C21.6494 79.973 18.5093 89.0027 11.6906 94.7843C11.3819 95.0457 11.0045 95.1738 10.6294 95.1738Z" fill="#ED8B00"/>
<path d="M10.6294 95.1738C10.1634 95.1738 9.70039 94.9764 9.37537 94.5928C8.78888 93.9006 8.87431 92.8636 9.56658 92.2765C15.2184 87.4846 17.9525 80.1173 16.8387 72.8489L16.6419 71.8745C16.1474 69.4251 15.8439 66.9109 15.7394 64.4017C15.7018 63.495 16.4062 62.7292 17.3125 62.6914C18.2186 62.6564 18.9842 63.3582 19.022 64.2652C19.0988 66.1155 19.2922 67.9688 19.598 69.7923L19.8854 71.2192C21.6494 79.973 18.5093 89.0027 11.6906 94.7843C11.3819 95.0457 11.0045 95.1738 10.6294 95.1738Z" fill="#ED8B00"/>
<path d="M108.758 61.0557C107.958 61.0557 107.256 60.4697 107.135 59.654C106.884 57.9638 106.594 56.2722 106.272 54.6147L106.108 53.8259C103.785 42.3012 97.1168 32.3717 87.3298 25.8664C77.5434 19.3611 65.8095 17.0582 54.2895 19.382C45.4284 21.1694 37.4541 25.5543 31.2284 32.0625C25.142 38.4253 21.132 46.3558 19.6319 54.9967C19.4767 55.891 18.6272 56.4904 17.7324 56.3344C16.8386 56.1793 16.2398 55.3284 16.3951 54.4341C18.0073 45.1477 22.3159 36.6258 28.855 29.7899C35.5472 22.7939 44.1178 18.0807 53.6403 16.1599C66.0203 13.6628 78.6306 16.1376 89.148 23.1287C99.3288 29.8958 106.37 40.1103 109.074 51.9905L109.089 51.9922L109.337 53.1769C109.732 55.1396 110.085 57.1559 110.385 59.1701C110.518 60.0679 109.899 60.9039 109.002 61.0376C108.92 61.0497 108.838 61.0557 108.758 61.0557Z" fill="#ED8B00"/>
<path d="M108.758 61.0557C107.958 61.0557 107.256 60.4697 107.135 59.654C106.884 57.9638 106.594 56.2722 106.272 54.6147L106.108 53.8259C103.785 42.3012 97.1168 32.3717 87.3298 25.8664C77.5434 19.3611 65.8095 17.0582 54.2895 19.382C45.4284 21.1694 37.4541 25.5543 31.2284 32.0625C25.142 38.4253 21.132 46.3558 19.6319 54.9967C19.4767 55.891 18.6272 56.4904 17.7324 56.3344C16.8386 56.1793 16.2398 55.3284 16.3951 54.4341C18.0073 45.1477 22.3159 36.6258 28.855 29.7899C35.5472 22.7939 44.1178 18.0807 53.6403 16.1599C66.0203 13.6628 78.6306 16.1376 89.148 23.1287C99.3288 29.8958 106.37 40.1103 109.074 51.9905L109.089 51.9922L109.337 53.1769C109.732 55.1396 110.085 57.1559 110.385 59.1701C110.518 60.0679 109.899 60.9039 109.002 61.0376C108.92 61.0497 108.838 61.0557 108.758 61.0557Z" fill="#ED8B00"/>
<path d="M106.165 107.039C106.025 107.039 105.883 107.021 105.741 106.983C104.865 106.749 104.344 105.849 104.577 104.972C107.698 93.2659 108.894 81.197 108.131 69.1C108.074 68.194 108.762 67.4135 109.667 67.3562C110.573 67.2967 111.353 67.9872 111.41 68.8928C112.195 81.3453 110.964 93.7692 107.752 105.819C107.556 106.554 106.892 107.039 106.165 107.039Z" fill="#ED8B00"/>
<path d="M106.165 107.039C106.025 107.039 105.883 107.021 105.741 106.983C104.865 106.749 104.344 105.849 104.577 104.972C107.698 93.2659 108.894 81.197 108.131 69.1C108.074 68.194 108.762 67.4135 109.667 67.3562C110.573 67.2967 111.353 67.9872 111.41 68.8928C112.195 81.3453 110.964 93.7692 107.752 105.819C107.556 106.554 106.892 107.039 106.165 107.039Z" fill="#ED8B00"/>
<path d="M7.0411 88.0945C6.6414 88.0945 6.24094 87.9495 5.92456 87.6562C5.25955 87.0391 5.2202 85.9994 5.83702 85.3337C8.68174 82.2643 9.95992 78.0422 9.31354 73.9376L9.19355 73.376C6.29603 59.0007 9.16744 44.3572 17.2789 32.1433C25.3903 19.9295 37.7705 11.6068 52.1389 8.70852C58.1737 7.49081 64.2968 7.28819 70.3376 8.10582C71.2368 8.22739 71.8671 9.05521 71.7454 9.95486C71.6238 10.8541 70.7951 11.4852 69.8972 11.3629C64.2198 10.5946 58.4638 10.7853 52.7884 11.9306C39.2801 14.6553 27.641 22.4798 20.0153 33.9621C12.5622 45.1848 9.81479 58.5902 12.2375 71.8085L12.4326 72.7227C13.5027 78.0351 11.9377 83.5851 8.24614 87.5686C7.92247 87.9178 7.48246 88.0945 7.0411 88.0945Z" fill="#ED8B00"/>
<path d="M7.0411 88.0945C6.6414 88.0945 6.24094 87.9495 5.92456 87.6562C5.25955 87.0391 5.2202 85.9994 5.83702 85.3337C8.68174 82.2643 9.95992 78.0422 9.31354 73.9376L9.19355 73.376C6.29603 59.0007 9.16744 44.3572 17.2789 32.1433C25.3903 19.9295 37.7705 11.6068 52.1389 8.70852C58.1737 7.49081 64.2968 7.28819 70.3376 8.10582C71.2368 8.22739 71.8671 9.05521 71.7454 9.95486C71.6238 10.8541 70.7951 11.4852 69.8972 11.3629C64.2198 10.5946 58.4638 10.7853 52.7884 11.9306C39.2801 14.6553 27.641 22.4798 20.0153 33.9621C12.5622 45.1848 9.81479 58.5902 12.2375 71.8085L12.4326 72.7227C13.5027 78.0351 11.9377 83.5851 8.24614 87.5686C7.92247 87.9178 7.48246 88.0945 7.0411 88.0945Z" fill="#ED8B00"/>
<path d="M116.678 92.7749C116.611 92.7749 116.542 92.7709 116.473 92.7622C115.573 92.6501 114.934 91.8288 115.046 90.9284C116.6 78.4465 116.172 65.8188 113.777 53.3776L113.555 52.3235C109.863 33.9989 96.5042 19.0653 78.692 13.3509C77.8279 13.0736 77.3522 12.1482 77.6292 11.2839C77.9064 10.4196 78.8317 9.94421 79.6951 10.2208C98.1395 16.1382 112.095 31.3515 116.443 50.1378L116.465 50.1344L116.789 51.6717C119.437 64.8024 119.948 78.1466 118.306 91.3344C118.203 92.166 117.495 92.7749 116.678 92.7749Z" fill="#ED8B00"/>
<path d="M116.678 92.7749C116.611 92.7749 116.542 92.7709 116.473 92.7622C115.573 92.6501 114.934 91.8288 115.046 90.9284C116.6 78.4465 116.172 65.8188 113.777 53.3776L113.555 52.3235C109.863 33.9989 96.5042 19.0653 78.692 13.3509C77.8279 13.0736 77.3522 12.1482 77.6292 11.2839C77.9064 10.4196 78.8317 9.94421 79.6951 10.2208C98.1395 16.1382 112.095 31.3515 116.443 50.1378L116.465 50.1344L116.789 51.6717C119.437 64.8024 119.948 78.1466 118.306 91.3344C118.203 92.166 117.495 92.7749 116.678 92.7749Z" fill="#ED8B00"/>
</svg>
