<svg width="20" height="20" viewBox="0 0 20 20" fill="none" xmlns="http://www.w3.org/2000/svg">
<path d="M14.5 18H5.5C4.67333 18 4 17.3273 4 16.5V9.5C4 8.67267 4.67333 8 5.5 8H14.5C15.3267 8 16 8.67267 16 9.5V16.5C16 17.3273 15.3267 18 14.5 18ZM5.5 9C5.22467 9 5 9.224 5 9.5V16.5C5 16.776 5.22467 17 5.5 17H14.5C14.7753 17 15 16.776 15 16.5V9.5C15 9.224 14.7753 9 14.5 9H5.5Z" fill="#F5F9F9"/>
<path d="M13.5 9C13.224 9 13 8.776 13 8.5V6C13 4.346 11.654 3 10 3C8.346 3 7 4.346 7 6V8.5C7 8.776 6.776 9 6.5 9C6.224 9 6 8.776 6 8.5V6C6 3.794 7.794 2 10 2C12.206 2 14 3.794 14 6V8.5C14 8.776 13.776 9 13.5 9Z" fill="#F5F9F9"/>
<path d="M9.99984 13.3337C9.2645 13.3337 8.6665 12.7357 8.6665 12.0003C8.6665 11.265 9.2645 10.667 9.99984 10.667C10.7352 10.667 11.3332 11.265 11.3332 12.0003C11.3332 12.7357 10.7352 13.3337 9.99984 13.3337ZM9.99984 11.667C9.8165 11.667 9.6665 11.8163 9.6665 12.0003C9.6665 12.1843 9.8165 12.3337 9.99984 12.3337C10.1832 12.3337 10.3332 12.1843 10.3332 12.0003C10.3332 11.8163 10.1832 11.667 9.99984 11.667Z" fill="#F5F9F9"/>
<path d="M10 15.3333C9.724 15.3333 9.5 15.1093 9.5 14.8333V13C9.5 12.724 9.724 12.5 10 12.5C10.276 12.5 10.5 12.724 10.5 13V14.8333C10.5 15.1093 10.276 15.3333 10 15.3333Z" fill="#F5F9F9"/>
</svg>
