<svg width="20" height="20" viewBox="0 0 20 20" fill="none" xmlns="http://www.w3.org/2000/svg">
<path d="M10 9.71802C11.0588 9.71802 11.9756 9.33826 12.7249 8.589C13.4739 7.83985 13.8538 6.92322 13.8538 5.86426C13.8538 4.80567 13.474 3.88892 12.7247 3.13953C11.9755 2.3905 11.0587 2.01074 10 2.01074C8.94104 2.01074 8.02442 2.3905 7.27527 3.13965C6.52612 3.8888 6.14624 4.80554 6.14624 5.86426C6.14624 6.92322 6.52612 7.83997 7.27527 8.58912C8.02466 9.33814 8.94141 9.71802 10 9.71802ZM7.93836 3.80261C8.51319 3.22778 9.1875 2.94837 10 2.94837C10.8124 2.94837 11.4868 3.22778 12.0618 3.80261C12.6366 4.37757 12.9161 5.052 12.9161 5.86426C12.9161 6.67676 12.6366 7.35108 12.0618 7.92603C11.4868 8.50098 10.8124 8.7804 10 8.7804C9.18775 8.7804 8.51343 8.50086 7.93836 7.92603C7.3634 7.3512 7.08386 6.67676 7.08386 5.86426C7.08386 5.052 7.3634 4.37757 7.93836 3.80261Z" fill="white"/>
<path d="M16.642 14.2926C16.6204 13.9808 16.5767 13.6408 16.5123 13.2816C16.4474 12.9198 16.3638 12.5778 16.2637 12.2651C16.1602 11.942 16.0197 11.6229 15.8457 11.3171C15.6654 10.9998 15.4535 10.7234 15.2157 10.496C14.9671 10.2581 14.6626 10.0668 14.3106 9.92725C13.9597 9.78845 13.5709 9.71814 13.155 9.71814C12.9917 9.71814 12.8337 9.78516 12.5287 9.98376C12.341 10.1062 12.1213 10.2478 11.8762 10.4044C11.6666 10.538 11.3827 10.6631 11.032 10.7764C10.6898 10.8871 10.3424 10.9432 9.9994 10.9432C9.65662 10.9432 9.30921 10.8871 8.9668 10.7764C8.61646 10.6632 8.3324 10.5381 8.12317 10.4045C7.88038 10.2494 7.66065 10.1078 7.4701 9.98364C7.16529 9.78503 7.00733 9.71802 6.844 9.71802C6.42798 9.71802 6.03931 9.78845 5.6886 9.92737C5.33679 10.0667 5.03223 10.2579 4.78333 10.4961C4.54553 10.7236 4.33362 10.9999 4.15344 11.3171C3.97974 11.6229 3.83911 11.9419 3.7356 12.2653C3.63562 12.5779 3.552 12.9198 3.48706 13.2816C3.42261 13.6403 3.37903 13.9805 3.35742 14.293C3.33618 14.5985 3.32544 14.9165 3.32544 15.2378C3.32544 16.073 3.59094 16.7492 4.1145 17.2478C4.63159 17.7399 5.31568 17.9894 6.14783 17.9894H13.8519C14.6838 17.9894 15.3679 17.7399 15.8851 17.2478C16.4088 16.7495 16.6743 16.0731 16.6743 15.2377C16.6742 14.9153 16.6633 14.5973 16.642 14.2926ZM15.2387 16.5685C14.897 16.8937 14.4434 17.0518 13.8518 17.0518H6.14783C5.55615 17.0518 5.10254 16.8937 4.76099 16.5686C4.4259 16.2496 4.26306 15.8142 4.26306 15.2378C4.26306 14.938 4.27295 14.642 4.29273 14.3578C4.31201 14.079 4.35144 13.7727 4.40991 13.4473C4.46765 13.1259 4.54114 12.8242 4.62854 12.5512C4.7124 12.2893 4.82678 12.03 4.96863 11.7803C5.10401 11.5422 5.25977 11.338 5.43164 11.1735C5.59241 11.0195 5.79505 10.8936 6.03382 10.7991C6.25464 10.7117 6.50281 10.6638 6.77222 10.6566C6.80506 10.6741 6.86353 10.7074 6.95826 10.7692C7.151 10.8948 7.37317 11.0381 7.61878 11.1949C7.89563 11.3715 8.25232 11.5309 8.67847 11.6685C9.11414 11.8093 9.55848 11.8809 9.99952 11.8809C10.4406 11.8809 10.885 11.8093 11.3204 11.6686C11.747 11.5308 12.1035 11.3715 12.3807 11.1947C12.6321 11.0341 12.848 10.8949 13.0408 10.7692C13.1355 10.7075 13.194 10.6741 13.2268 10.6566C13.4963 10.6638 13.7445 10.7117 13.9655 10.7991C14.2041 10.8936 14.4067 11.0197 14.5675 11.1735C14.7394 11.3379 14.8952 11.5421 15.0305 11.7804C15.1725 12.03 15.287 12.2894 15.3707 12.551C15.4583 12.8245 15.5319 13.126 15.5895 13.4471C15.6478 13.7732 15.6874 14.0796 15.7067 14.3579V14.3582C15.7266 14.6412 15.7366 14.9371 15.7367 15.2378C15.7366 15.8143 15.5737 16.2496 15.2387 16.5685Z" fill="white"/>
</svg>
